<svg width="57" height="57" viewBox="0 0 57 57" fill="none" xmlns="http://www.w3.org/2000/svg">
<path d="M18.7595 53.3924C19.955 53.3924 20.9241 52.5041 20.9241 51.4082C20.9241 50.3124 19.955 49.4241 18.7595 49.4241C17.5641 49.4241 16.595 50.3124 16.595 51.4082C16.595 52.5041 17.5641 53.3924 18.7595 53.3924Z" stroke="#FBF8FF" stroke-width="2" stroke-linecap="round" stroke-linejoin="round"/>
<path d="M47.8006 53.3924C48.8964 53.3924 49.7848 52.5041 49.7848 51.4082C49.7848 50.3124 48.8964 49.4241 47.8006 49.4241C46.7048 49.4241 45.8164 50.3124 45.8164 51.4082C45.8164 52.5041 46.7048 53.3924 47.8006 53.3924Z" stroke="#FBF8FF" stroke-width="2" stroke-linecap="round" stroke-linejoin="round"/>
<path d="M2.88611 8.6582H11.0424L17.1596 42.5696H49.7848" stroke="#FBF8FF" stroke-width="2" stroke-linecap="round" stroke-linejoin="round"/>
<path d="M17.0864 34.9937H49.0385C49.2755 34.9938 49.5052 34.913 49.6886 34.765C49.8719 34.6169 49.9975 34.4109 50.0441 34.1818L53.7332 15.9995C53.763 15.8529 53.7593 15.7016 53.7226 15.5565C53.6858 15.4115 53.6169 15.2762 53.5207 15.1606C53.4245 15.045 53.3034 14.9519 53.1663 14.888C53.0292 14.8241 52.8793 14.791 52.7276 14.7911H12.9873" stroke="#FBF8FF" stroke-width="2" stroke-linecap="round" stroke-linejoin="round"/>
</svg>
