<svg width="27" height="24" viewBox="0 0 27 24" fill="none" xmlns="http://www.w3.org/2000/svg">
<path d="M21.5156 3H5.48438C4.70184 3.00198 3.952 3.27918 3.39866 3.77103C2.84532 4.26289 2.53348 4.92942 2.53125 5.625V14.625C2.53348 15.3206 2.84532 15.9871 3.39866 16.479C3.952 16.9708 4.70184 17.248 5.48438 17.25H7.59375V21L12.536 17.3372C12.6119 17.2808 12.7077 17.25 12.8065 17.25H21.5156C22.2982 17.248 23.048 16.9708 23.6013 16.479C24.1547 15.9871 24.4665 15.3206 24.4688 14.625V5.625C24.4665 4.92942 24.1547 4.26289 23.6013 3.77103C23.048 3.27918 22.2982 3.00198 21.5156 3Z" stroke="#FBF8FF" stroke-width="2" stroke-linejoin="round"/>
</svg>
