<svg width="71" height="71" viewBox="0 0 71 71" fill="none" xmlns="http://www.w3.org/2000/svg">
<path d="M59.6443 48.2439C58.7291 47.398 57.3839 47.19 56.233 46.9959C54.6382 46.7324 54.0281 46.4412 53.099 45.6092C51.116 43.848 51.116 41.2965 53.099 39.5354L57.3007 35.8051C63.7351 30.1195 63.7351 20.8008 57.3007 15.1152C52.5582 10.9412 46.1931 8.875 39.5785 8.875C31.8544 8.875 23.7837 11.69 17.5574 17.2092C5.97827 27.4432 5.97827 44.2086 17.5574 54.4426C23.3123 59.5318 31.0779 62.0695 38.7603 62.125H38.996C46.6785 62.125 54.25 59.6428 59.6304 54.8586C61.6273 53.0975 61.2931 49.7832 59.6443 48.2439Z" stroke="#2B3BE5" stroke-width="4" stroke-miterlimit="10"/>
<path d="M19.9688 33.2812C22.4195 33.2812 24.4062 31.2945 24.4062 28.8438C24.4062 26.393 22.4195 24.4062 19.9688 24.4062C17.518 24.4062 15.5312 26.393 15.5312 28.8438C15.5312 31.2945 17.518 33.2812 19.9688 33.2812Z" fill="#2B3BE5"/>
<path d="M21.0781 47.5645C23.5289 47.5645 25.5156 45.5777 25.5156 43.127C25.5156 40.6762 23.5289 38.6895 21.0781 38.6895C18.6274 38.6895 16.6406 40.6762 16.6406 43.127C16.6406 45.5777 18.6274 47.5645 21.0781 47.5645Z" fill="#2B3BE5"/>
<path d="M31.0625 24.4062C33.5133 24.4062 35.5 22.4195 35.5 19.9688C35.5 17.518 33.5133 15.5312 31.0625 15.5312C28.6117 15.5312 26.625 17.518 26.625 19.9688C26.625 22.4195 28.6117 24.4062 31.0625 24.4062Z" fill="#2B3BE5"/>
<path d="M35.5 57.0839C39.1761 57.0839 42.1562 54.2079 42.1562 50.6601C42.1562 47.1124 39.1761 44.2363 35.5 44.2363C31.8239 44.2363 28.8438 47.1124 28.8438 50.6601C28.8438 54.2079 31.8239 57.0839 35.5 57.0839Z" fill="#2B3BE5"/>
<path d="M45.4844 24.4062C47.9351 24.4062 49.9219 22.4195 49.9219 19.9688C49.9219 17.518 47.9351 15.5312 45.4844 15.5312C43.0336 15.5312 41.0469 17.518 41.0469 19.9688C41.0469 22.4195 43.0336 24.4062 45.4844 24.4062Z" fill="#2B3BE5"/>
</svg>
