<svg width="46" height="47" viewBox="0 0 46 47" fill="none" xmlns="http://www.w3.org/2000/svg">
<path d="M39.5091 5.875H6.30255C4.77426 5.875 3.53534 7.19016 3.53534 8.8125V32.3125C3.53534 33.9348 4.77426 35.25 6.30255 35.25H39.5091C41.0374 35.25 42.2763 33.9348 42.2763 32.3125V8.8125C42.2763 7.19016 41.0374 5.875 39.5091 5.875Z" stroke="#FBF8FF" stroke-width="2" stroke-linejoin="round"/>
<path d="M27.0566 41.125L26.3648 35.25H19.4468L18.755 41.125H27.0566Z" fill="#FBF8FF" stroke="#FBF8FF" stroke-width="2" stroke-linecap="round" stroke-linejoin="round"/>
<path d="M32.5911 41.125H13.2206" stroke="#FBF8FF" stroke-width="2" stroke-linecap="round" stroke-linejoin="round"/>
<path d="M3.53534 27.9062V32.3125C3.53739 33.0909 3.8296 33.8368 4.34811 34.3872C4.86661 34.9376 5.56927 35.2478 6.30255 35.25H39.5091C40.2424 35.2478 40.945 34.9376 41.4635 34.3872C41.982 33.8368 42.2742 33.0909 42.2763 32.3125V27.9062H3.53534ZM22.9058 33.7812C22.6322 33.7812 22.3647 33.6951 22.1371 33.5337C21.9096 33.3723 21.7322 33.1429 21.6275 32.8746C21.5228 32.6062 21.4954 32.3109 21.5488 32.026C21.6022 31.7411 21.734 31.4793 21.9275 31.2739C22.121 31.0685 22.3675 30.9286 22.6359 30.872C22.9043 30.8153 23.1825 30.8444 23.4353 30.9556C23.6881 31.0667 23.9042 31.255 24.0562 31.4965C24.2083 31.738 24.2894 32.022 24.2894 32.3125C24.2894 32.702 24.1436 33.0756 23.8842 33.3511C23.6247 33.6265 23.2728 33.7812 22.9058 33.7812Z" fill="#FBF8FF"/>
</svg>
