<svg width="80" height="80" viewBox="0 0 80 80" fill="none" xmlns="http://www.w3.org/2000/svg">
<path d="M70 40C70 23.4375 56.5625 10 40 10C23.4375 10 10 23.4375 10 40C10 56.5625 23.4375 70 40 70C56.5625 70 70 56.5625 70 40Z" stroke="#2B3BE5" stroke-width="4" stroke-miterlimit="10"/>
<path d="M54.7923 23.5827L36.4798 30.9077C35.2221 31.4106 34.0797 32.1639 33.1219 33.1217C32.1641 34.0795 31.4109 35.2219 30.9079 36.4796L23.5829 54.7921C23.492 55.0192 23.4697 55.2681 23.5189 55.5078C23.5681 55.7474 23.6865 55.9674 23.8595 56.1405C24.0325 56.3135 24.2525 56.4319 24.4922 56.4811C24.7319 56.5302 24.9808 56.508 25.2079 56.4171L43.5204 49.0921C44.7781 48.5891 45.9205 47.8359 46.8783 46.8781C47.8361 45.9203 48.5893 44.7779 49.0923 43.5202L56.4173 25.2077C56.5082 24.9805 56.5305 24.7317 56.4813 24.492C56.4321 24.2523 56.3137 24.0323 56.1407 23.8593C55.9677 23.6863 55.7477 23.5678 55.508 23.5187C55.2683 23.4695 55.0195 23.4918 54.7923 23.5827ZM40.0001 43.7499C39.2584 43.7499 38.5334 43.5299 37.9167 43.1179C37.3 42.7058 36.8194 42.1202 36.5356 41.4349C36.2517 40.7497 36.1775 39.9957 36.3222 39.2683C36.4669 38.5408 36.824 37.8727 37.3485 37.3482C37.8729 36.8238 38.5411 36.4666 39.2685 36.3219C39.996 36.1772 40.75 36.2515 41.4352 36.5353C42.1204 36.8191 42.7061 37.2998 43.1181 37.9165C43.5302 38.5332 43.7501 39.2582 43.7501 39.9999C43.7501 40.9944 43.355 41.9483 42.6518 42.6515C41.9485 43.3548 40.9947 43.7499 40.0001 43.7499Z" fill="#2B3BE5"/>
</svg>
