<svg width="45" height="45" viewBox="0 0 45 45" fill="none" xmlns="http://www.w3.org/2000/svg">
<path d="M22.5 4.21875C12.404 4.21875 4.21875 12.404 4.21875 22.5C4.21875 32.596 12.404 40.7812 22.5 40.7812C32.596 40.7812 40.7812 32.596 40.7812 22.5C40.7812 12.404 32.596 4.21875 22.5 4.21875Z" stroke="white" stroke-width="2" stroke-miterlimit="10"/>
<path d="M22.4998 4.21875C17.396 4.21875 12.5972 12.404 12.5972 22.5C12.5972 32.596 17.396 40.7812 22.4998 40.7812C27.6036 40.7812 32.4024 32.596 32.4024 22.5C32.4024 12.404 27.6036 4.21875 22.4998 4.21875Z" stroke="white" stroke-width="2" stroke-miterlimit="10"/>
<path d="M10.312 10.3123C13.6729 12.6985 17.904 14.1214 22.4998 14.1214C27.0956 14.1214 31.3267 12.6985 34.6876 10.3123M34.6876 34.6878C31.3267 32.3016 27.0956 30.8787 22.4998 30.8787C17.904 30.8787 13.6729 32.3016 10.312 34.6878" stroke="white" stroke-width="2" stroke-linecap="round" stroke-linejoin="round"/>
<path d="M22.5 4.21875V40.7812M40.7812 22.5H4.21875" stroke="white" stroke-width="2" stroke-miterlimit="10"/>
</svg>
