<svg width="745" height="769" viewBox="0 0 745 769" fill="none" xmlns="http://www.w3.org/2000/svg">
<path d="M516.781 507.594C516.781 502.745 514.855 498.095 511.427 494.667C507.998 491.239 503.348 489.312 498.5 489.312C493.652 489.312 489.002 491.239 485.573 494.667C482.145 498.095 480.219 502.745 480.219 507.594V529.531" stroke="#2B3BE5" stroke-width="10" stroke-linecap="round" stroke-linejoin="round"/>
<path d="M524.094 529.531H472.906C466.848 529.531 461.938 534.442 461.938 540.5V580.719C461.938 586.777 466.848 591.688 472.906 591.688H524.094C530.152 591.688 535.062 586.777 535.062 580.719V540.5C535.062 534.442 530.152 529.531 524.094 529.531Z" stroke="#2B3BE5" stroke-width="10" stroke-linecap="round" stroke-linejoin="round"/>
<path d="M263.953 346.875H179.047C174.902 346.887 170.931 348.538 168 351.469C165.07 354.4 163.418 358.371 163.406 362.516V416.141C163.418 420.285 165.07 424.257 168 427.187C170.931 430.118 174.902 431.769 179.047 431.781H190.219V454.125L216.394 432.301C216.796 431.965 217.304 431.781 217.827 431.781H263.953C268.098 431.769 272.069 430.118 275 427.187C277.93 424.257 279.582 420.285 279.594 416.141V362.516C279.582 358.371 277.93 354.4 275 351.469C272.069 348.538 268.098 346.887 263.953 346.875Z" stroke="#2B3BE5" stroke-width="10" stroke-linejoin="round"/>
<path d="M194.688 398.266C199.624 398.266 203.625 394.264 203.625 389.328C203.625 384.392 199.624 380.391 194.688 380.391C189.751 380.391 185.75 384.392 185.75 389.328C185.75 394.264 189.751 398.266 194.688 398.266Z" fill="#2B3BE5"/>
<path d="M221.5 398.266C226.436 398.266 230.438 394.264 230.438 389.328C230.438 384.392 226.436 380.391 221.5 380.391C216.564 380.391 212.562 384.392 212.562 389.328C212.562 394.264 216.564 398.266 221.5 398.266Z" fill="#2B3BE5"/>
<path d="M248.312 398.266C253.249 398.266 257.25 394.264 257.25 389.328C257.25 384.392 253.249 380.391 248.312 380.391C243.376 380.391 239.375 384.392 239.375 389.328C239.375 394.264 243.376 398.266 248.312 398.266Z" fill="#2B3BE5"/>
<path d="M326.483 237.784L405.688 87.3414C407.417 84.0565 410.824 82 414.536 82H588.143C591.869 82 595.287 84.0718 597.01 87.3758L671.588 230.376C673.1 233.273 673.1 236.727 671.588 239.624L597.01 382.624C595.287 385.928 591.869 388 588.143 388H408.461C404.785 388 401.405 385.983 399.66 382.748L326.53 247.191C324.949 244.259 324.931 240.732 326.483 237.784Z" stroke="#2B3BE5" stroke-width="40"/>
<path d="M47.0619 388.943L130.387 251.321C132.199 248.328 135.443 246.5 138.941 246.5H317.741C321.416 246.5 324.795 248.516 326.541 251.75L396.543 381.447C398.084 384.303 398.144 387.728 396.704 390.636L326.462 532.439C324.774 535.845 321.302 538 317.501 538H132.874C129.3 538 125.998 536.093 124.212 532.998L46.9548 399.12C45.1323 395.962 45.1733 392.062 47.0619 388.943Z" stroke="#2B3BE5" stroke-width="40"/>
<path d="M325.242 536.522L396.854 393.522C398.549 390.138 402.01 388 405.796 388H586.399C590.092 388 593.485 390.035 595.223 393.294L671.376 536.08C673.007 539.138 672.938 542.823 671.194 545.819L587.781 689.033C585.99 692.108 582.699 694 579.14 694H405.796C402.01 694 398.549 691.862 396.854 688.478L325.242 545.478C323.831 542.659 323.831 539.341 325.242 536.522Z" stroke="#2B3BE5" stroke-width="40"/>
<circle cx="614" cy="392" r="80" fill="#2B3BE5"/>
<circle cx="319" cy="232" r="80" fill="#2B3BE5"/>
<circle cx="319" cy="541" r="80" fill="#2B3BE5"/>
<path d="M514.344 278.75V270.828C514.344 261.256 524.754 252.202 531.508 245.742C541.027 236.642 546.031 224.416 546.031 210.094C546.031 183.688 524.995 162.563 498.5 162.563C492.253 162.545 486.065 163.763 480.29 166.145C474.515 168.528 469.269 172.028 464.851 176.445C460.434 180.862 456.934 186.109 454.551 191.884C452.169 197.658 450.951 203.847 450.969 210.094C450.969 223.904 456.187 236.959 465.492 245.742C472.209 252.083 482.656 261.157 482.656 270.828V278.75M487.938 310.437H509.063M482.656 294.594H514.344M498.5 278.75V236.5" stroke="#2B3BE5" stroke-width="10" stroke-linecap="round" stroke-linejoin="round"/>
<path d="M511.043 231.219C511.043 231.219 503.943 236.5 498.5 236.5C493.057 236.5 485.957 231.219 485.957 231.219" stroke="#2B3BE5" stroke-width="10" stroke-linecap="round" stroke-linejoin="round"/>
</svg>
