<svg width="61" height="61" viewBox="0 0 61 61" fill="none" xmlns="http://www.w3.org/2000/svg">
<path d="M55.0203 6.4112C55 6.31342 54.9522 6.22347 54.8826 6.15192C54.8129 6.08037 54.7243 6.0302 54.6271 6.00731C48.1482 4.42274 33.1818 10.0688 25.0647 18.1799C23.6181 19.6147 22.299 21.1725 21.1224 22.8359C18.6204 22.6096 16.1185 22.8002 13.9882 23.7295C7.97281 26.3744 6.22264 33.2822 5.73416 36.2476C5.7077 36.4101 5.719 36.5765 5.7672 36.7339C5.8154 36.8913 5.89919 37.0355 6.0121 37.1553C6.125 37.2751 6.26398 37.3674 6.41825 37.4248C6.57253 37.4823 6.73797 37.5034 6.90174 37.4867L16.5605 36.4263C16.5672 37.1548 16.6109 37.8825 16.6915 38.6066C16.7419 39.107 16.9652 39.5743 17.323 39.9278L21.0628 43.6677C21.4167 44.0257 21.8844 44.249 22.3853 44.2991C23.105 44.3794 23.8283 44.4231 24.5524 44.4302L23.4933 54.0806C23.4767 54.2441 23.498 54.4093 23.5555 54.5633C23.613 54.7173 23.7051 54.8561 23.8248 54.9688C23.9444 55.0816 24.0884 55.1653 24.2455 55.2135C24.4027 55.2617 24.5688 55.2732 24.7311 55.2469C27.6977 54.7704 34.6198 53.0202 37.2492 47.006C38.1785 44.8734 38.3692 42.3845 38.1547 39.8945C39.823 38.7189 41.3853 37.3998 42.8238 35.9521C50.9707 27.8506 56.581 13.2129 55.0203 6.4112ZM35.5825 25.457C34.8709 24.7456 34.3862 23.8391 34.1898 22.8523C33.9935 21.8654 34.0941 20.8424 34.4791 19.9128C34.8642 18.9831 35.5162 18.1885 36.3528 17.6295C37.1895 17.0704 38.1731 16.772 39.1793 16.772C40.1855 16.772 41.1692 17.0704 42.0058 17.6295C42.8424 18.1885 43.4945 18.9831 43.8795 19.9128C44.2645 20.8424 44.3652 21.8654 44.1688 22.8523C43.9724 23.8391 43.4878 24.7456 42.7762 25.457C42.3042 25.93 41.7435 26.3053 41.1263 26.5613C40.5091 26.8173 39.8475 26.9491 39.1793 26.9491C38.5111 26.9491 37.8495 26.8173 37.2323 26.5613C36.6151 26.3053 36.0544 25.93 35.5825 25.457Z" stroke="#2B3BE5" stroke-width="4" stroke-linecap="round" stroke-linejoin="round"/>
<path d="M13.0626 41.9375C11.8749 42.0833 10.7699 42.6217 9.92322 43.4673C7.82396 45.5737 7.625 53.375 7.625 53.375C7.625 53.375 15.4311 53.176 17.5315 51.0744C18.3805 50.229 18.9198 49.1222 19.0625 47.9327" stroke="#2B3BE5" stroke-width="4" stroke-linecap="round" stroke-linejoin="round"/>
</svg>
