<svg width="73" height="73" viewBox="0 0 73 73" fill="none" xmlns="http://www.w3.org/2000/svg">
<path d="M65.1155 34.5422L61.3971 33.9434C61.157 33.903 60.9361 33.7868 60.7668 33.6118C60.5975 33.4368 60.4886 33.2123 60.4561 32.971C60.3848 32.5147 60.3135 32.0571 60.2137 31.6151C60.1654 31.3778 60.1932 31.1313 60.293 30.9107C60.3928 30.69 60.5596 30.5065 60.7697 30.3861L64.0619 28.5582C64.3111 28.4308 64.5051 28.2167 64.6075 27.9562C64.7099 27.6958 64.7136 27.4068 64.6179 27.1438L64.0476 25.5755C63.9522 25.3117 63.7623 25.0928 63.5147 24.9611C63.2671 24.8294 62.9794 24.7943 62.7074 24.8626L59.016 25.5755C58.776 25.6219 58.5275 25.5901 58.307 25.4846C58.0865 25.379 57.9057 25.2055 57.7913 24.9895C57.5774 24.5903 57.3493 24.1906 57.1069 23.7904C56.9789 23.5823 56.9197 23.3392 56.9376 23.0956C56.9555 22.852 57.0497 22.6202 57.2067 22.4331L59.6719 19.59C59.8631 19.3866 59.973 19.1201 59.9809 18.8411C59.9888 18.562 59.8941 18.2898 59.7147 18.0759L58.6467 16.7927C58.4688 16.5769 58.2167 16.4352 57.9399 16.3954C57.663 16.3556 57.3812 16.4205 57.1497 16.5774L53.9146 18.5207C53.7066 18.6439 53.4649 18.6979 53.2243 18.6749C52.9836 18.6518 52.7565 18.5529 52.5758 18.3924C52.2336 18.0915 51.8771 17.7921 51.5207 17.5056C51.3311 17.3549 51.1944 17.1479 51.1303 16.9143C51.0662 16.6808 51.0781 16.433 51.1642 16.2067L52.5045 12.6779C52.6185 12.4218 52.6343 12.1328 52.5489 11.8659C52.4634 11.599 52.2826 11.3728 52.0411 11.2307L50.5868 10.3881C50.3441 10.2502 50.0593 10.2062 49.7863 10.2643C49.5133 10.3223 49.271 10.4785 49.1054 10.7032L46.7329 13.6745C46.6004 13.8615 46.4087 13.9984 46.1888 14.063C45.9689 14.1277 45.7337 14.1164 45.521 14.0309C45.521 14.0309 44.7226 13.703 44.1237 13.502C43.8941 13.4254 43.6947 13.2778 43.5545 13.0804C43.4143 12.883 43.3405 12.6462 43.3438 12.4041L43.4009 8.63292C43.4177 8.35242 43.3312 8.07547 43.1579 7.85432C42.9845 7.63317 42.7362 7.48309 42.4599 7.43241L40.8074 7.14725C40.5308 7.09934 40.2462 7.15422 40.0072 7.30154C39.7682 7.44886 39.5914 7.67846 39.5099 7.94712L38.2837 11.5187C38.2051 11.7489 38.0548 11.9479 37.855 12.0867C37.6552 12.2255 37.4162 12.2967 37.1731 12.29H35.7758C35.5329 12.2952 35.2947 12.2233 35.0952 12.0848C34.8957 11.9462 34.7451 11.748 34.6651 11.5187L33.4389 7.94712C33.3575 7.67846 33.1806 7.44886 32.9416 7.30154C32.7027 7.15422 32.4181 7.09934 32.1415 7.14725L30.489 7.43241C30.2126 7.48309 29.9643 7.63317 29.791 7.85432C29.6176 8.07547 29.5312 8.35242 29.548 8.63292L29.605 12.4041C29.6085 12.6468 29.5344 12.8842 29.3936 13.0819C29.2529 13.2796 29.0527 13.4273 28.8223 13.5034C28.4943 13.6317 27.7814 13.904 27.4392 14.0323C27.04 14.1749 26.5695 14.0609 26.1846 13.6174L23.8306 10.7174C23.6642 10.4937 23.4216 10.3387 23.1486 10.2817C22.8756 10.2246 22.5913 10.2696 22.3492 10.408L20.8949 11.2507C20.6528 11.3901 20.4707 11.6142 20.3839 11.8798C20.297 12.1454 20.3115 12.4337 20.4244 12.6893L21.7646 16.2181C21.8494 16.4445 21.8607 16.692 21.7967 16.9252C21.7327 17.1584 21.5967 17.3655 21.4082 17.517C21.0517 17.8021 20.6953 18.103 20.3531 18.4038C20.1723 18.5643 19.9453 18.6632 19.7046 18.6863C19.464 18.7093 19.2223 18.6554 19.0143 18.5321L15.8263 16.5588C15.5935 16.4057 15.3127 16.343 15.0369 16.3827C14.7611 16.4223 14.5094 16.5616 14.3292 16.7741L13.2613 18.0573C13.0819 18.2712 12.9871 18.5435 12.995 18.8225C13.0029 19.1016 13.1129 19.3681 13.304 19.5715L15.7692 22.4145C15.9295 22.6 16.0258 22.8322 16.0438 23.0767C16.0617 23.3212 16.0005 23.5649 15.869 23.7719C15.6266 24.1521 15.3985 24.5518 15.1847 24.9709C15.0684 25.1853 14.8873 25.3574 14.6673 25.4626C14.4474 25.5679 14.1998 25.6009 13.9599 25.5569L10.2686 24.844C9.99661 24.7777 9.70977 24.8137 9.46263 24.9452C9.21549 25.0766 9.02533 25.2944 8.92833 25.5569L8.35801 27.1253C8.26231 27.3883 8.26601 27.6772 8.36842 27.9377C8.47082 28.1982 8.66487 28.4123 8.91407 28.5397L12.2019 30.3689C12.4142 30.487 12.5829 30.6703 12.683 30.8916C12.7831 31.1129 12.8094 31.3606 12.758 31.598C12.6724 32.0542 12.5869 32.4976 12.5156 32.9539C12.4814 33.1945 12.3719 33.4181 12.2029 33.5928C12.0339 33.7675 11.8139 33.8842 11.5746 33.9263L7.85614 34.5251C7.57943 34.5592 7.32443 34.6924 7.13832 34.9C6.95222 35.1076 6.8476 35.3755 6.84384 35.6543V37.3253C6.84038 37.6062 6.94249 37.8781 7.12997 38.0872C7.31744 38.2963 7.5766 38.4274 7.85614 38.4546L11.5746 39.0534C11.8147 39.0938 12.0355 39.21 12.2049 39.385C12.3742 39.5599 12.4831 39.7845 12.5156 40.0258C12.5869 40.482 12.6582 40.9397 12.758 41.3817C12.8062 41.619 12.7785 41.8655 12.6786 42.0861C12.5788 42.3067 12.412 42.4903 12.2019 42.6107L8.90979 44.4414C8.6606 44.5688 8.46654 44.7829 8.36414 45.0434C8.26174 45.3039 8.25804 45.5928 8.35374 45.8558L8.92405 47.4241C9.01945 47.6879 9.20936 47.9068 9.45697 48.0385C9.70458 48.1702 9.99227 48.2053 10.2643 48.137L13.9556 47.4241C14.1956 47.3777 14.4442 47.4096 14.6647 47.5151C14.8852 47.6206 15.066 47.7941 15.1804 48.0101C15.3942 48.4094 15.6224 48.8091 15.8648 49.2092C15.9927 49.4173 16.0519 49.6604 16.034 49.904C16.0161 50.1476 15.922 50.3794 15.7649 50.5666L13.2998 53.4124C13.1086 53.6158 12.9986 53.8823 12.9907 54.1614C12.9829 54.4404 13.0776 54.7127 13.257 54.9266L14.3249 56.2098C14.5029 56.4256 14.7549 56.5673 15.0318 56.6071C15.3087 56.6469 15.5904 56.582 15.822 56.4251L19.0571 54.4818C19.265 54.3585 19.5068 54.3045 19.7474 54.3276C19.988 54.3507 20.2151 54.4496 20.3959 54.6101C20.7381 54.9109 21.0945 55.2103 21.451 55.4969C21.6406 55.6475 21.7773 55.8546 21.8414 56.0881C21.9055 56.3216 21.8936 56.5695 21.8074 56.7958L20.4672 60.3246C20.3549 60.581 20.3409 60.8696 20.4276 61.1357C20.5144 61.4017 20.6959 61.6266 20.9377 61.7675L22.392 62.6101C22.6347 62.748 22.9195 62.792 23.1925 62.7339C23.4655 62.6759 23.7078 62.5197 23.8734 62.295L26.2673 59.3522C26.5667 58.9815 27.0514 58.8247 27.4364 58.9815C27.9212 59.1811 28.2491 59.2952 28.8479 59.4962C29.0784 59.5724 29.2785 59.72 29.4193 59.9177C29.5601 60.1154 29.6341 60.3528 29.6307 60.5955L29.5736 64.3667C29.5568 64.6472 29.6433 64.9241 29.8166 65.1453C29.99 65.3664 30.2383 65.5165 30.5147 65.5672L32.1671 65.8524C32.4437 65.9003 32.7283 65.8454 32.9673 65.6981C33.2063 65.5508 33.3831 65.3212 33.4646 65.0525L34.6908 61.488C34.7694 61.2578 34.9197 61.0588 35.1195 60.92C35.3193 60.7813 35.5583 60.71 35.8015 60.7167H37.1987C37.4416 60.7116 37.6798 60.7834 37.8793 60.922C38.0788 61.0606 38.2294 61.2587 38.3094 61.488L39.5356 65.0525C39.617 65.3212 39.7939 65.5508 40.0329 65.6981C40.2718 65.8454 40.5564 65.9003 40.833 65.8524L42.4855 65.5672C42.7619 65.5165 43.0102 65.3664 43.1835 65.1453C43.3569 64.9241 43.4433 64.6472 43.4265 64.3667L43.3695 60.5955C43.3661 60.3528 43.4401 60.1154 43.5809 59.9177C43.7216 59.72 43.9218 59.5724 44.1523 59.4962C44.7511 59.2952 45.1503 59.1384 45.521 58.9958C45.8917 58.8532 46.348 58.8532 46.7044 59.2952L49.1282 62.2808C49.2947 62.5062 49.5382 62.6625 49.8125 62.7198C50.0868 62.7771 50.3725 62.7315 50.6153 62.5916L52.0696 61.749C52.313 61.6096 52.496 61.3848 52.5829 61.1182C52.6699 60.8515 52.6546 60.5621 52.5401 60.3061L51.1999 56.7773C51.1152 56.5506 51.104 56.3029 51.168 56.0695C51.232 55.8361 51.3679 55.6288 51.5563 55.477C51.9128 55.1918 52.2692 54.8924 52.6114 54.5915C52.7922 54.431 53.0193 54.3321 53.2599 54.3091C53.5005 54.286 53.7423 54.34 53.9502 54.4632L57.1739 56.4123C57.4067 56.5654 57.6875 56.6281 57.9633 56.5884C58.2391 56.5488 58.4908 56.4095 58.671 56.197L59.7389 54.9138C59.9183 54.6999 60.013 54.4276 60.0052 54.1486C59.9973 53.8695 59.8873 53.603 59.6961 53.3996L57.2309 50.5566C57.0707 50.3711 56.9744 50.1389 56.9564 49.8944C56.9384 49.6499 56.9997 49.4062 57.1311 49.1992C57.3735 48.8143 57.6017 48.4146 57.8155 48.0002C57.9318 47.7858 58.1129 47.6137 58.3328 47.5085C58.5528 47.4032 58.8004 47.3702 59.0403 47.4142L62.7316 48.1271C63.0036 48.1934 63.2904 48.1574 63.5375 48.0259C63.7847 47.8945 63.9748 47.6767 64.0718 47.4142L64.6422 45.8458C64.7379 45.5828 64.7342 45.2939 64.6318 45.0334C64.5294 44.7729 64.3353 44.5588 64.0861 44.4314L60.794 42.6036C60.5817 42.4855 60.413 42.3022 60.3129 42.0809C60.2128 41.8596 60.1865 41.612 60.2379 41.3746C60.3235 40.9183 60.409 40.4749 60.4803 40.0186C60.5145 39.778 60.624 39.5544 60.793 39.3797C60.962 39.2051 61.1819 39.0883 61.4213 39.0463L65.1398 38.4474C65.4165 38.4133 65.6715 38.2802 65.8576 38.0726C66.0437 37.865 66.1483 37.597 66.1521 37.3182V35.6443C66.1365 35.3681 66.0241 35.1061 65.8345 34.9045C65.6449 34.7029 65.3903 34.5746 65.1155 34.5422ZM36.5001 15.9686C41.054 15.9666 45.479 17.4806 49.0773 20.2719C52.6755 23.0631 55.2422 26.9727 56.3726 31.3841C56.4567 31.7205 56.463 32.0717 56.391 32.4109C56.319 32.7501 56.1707 33.0684 55.9572 33.3417C55.7437 33.6149 55.4708 33.8359 55.1591 33.9879C54.8474 34.1398 54.5051 34.2187 54.1584 34.2186H39.1535C38.7505 34.2186 38.3546 34.1119 38.0063 33.9093C37.6579 33.7067 37.3694 33.4154 37.1702 33.0651L29.7419 19.9893C29.5689 19.6853 29.4682 19.3456 29.4474 18.9964C29.4266 18.6473 29.4865 18.298 29.6222 17.9757C29.7579 17.6534 29.966 17.3665 30.2303 17.1374C30.4945 16.9083 30.8079 16.743 31.1463 16.6544C32.8938 16.1959 34.6934 15.9654 36.5001 15.9686ZM15.9688 36.4998C15.9663 33.7507 16.5158 31.0291 17.5849 28.4965C18.6539 25.9638 20.2208 23.6716 22.1924 21.7558C22.4413 21.5093 22.7437 21.3235 23.0761 21.2128C23.4084 21.102 23.7618 21.0693 24.1089 21.1171C24.4559 21.165 24.7873 21.2921 25.0773 21.4887C25.3673 21.6852 25.6081 21.9459 25.7811 22.2506L33.2293 35.3592C33.4261 35.7038 33.5297 36.0937 33.5297 36.4905C33.5297 36.8874 33.4261 37.2773 33.2293 37.6219L25.7198 50.6963C25.5454 51.0001 25.3035 51.2596 25.0127 51.4548C24.7219 51.65 24.3901 51.7757 24.0429 51.822C23.6958 51.8683 23.3426 51.8341 23.0108 51.7219C22.679 51.6098 22.3775 51.4228 22.1296 51.1754C20.1772 49.2627 18.6266 46.9793 17.5686 44.4592C16.5107 41.939 15.9668 39.233 15.9688 36.4998ZM36.5001 57.0311C34.662 57.0358 32.8312 56.7985 31.055 56.3253C30.7168 56.2354 30.4038 56.0689 30.1402 55.8386C29.8766 55.6084 29.6695 55.3206 29.535 54.9975C29.4005 54.6744 29.3421 54.3247 29.3644 53.9754C29.3866 53.6261 29.489 53.2866 29.6635 52.9833L37.1602 39.9302C37.3607 39.583 37.6492 39.2947 37.9967 39.0944C38.3441 38.8941 38.7382 38.789 39.1392 38.7896H54.1655C54.5122 38.7897 54.8542 38.8687 55.1657 39.0208C55.4773 39.1728 55.75 39.3938 55.9633 39.6671C56.1767 39.9403 56.3249 40.2585 56.3968 40.5976C56.4687 40.9367 56.4624 41.2878 56.3783 41.6241C55.2456 46.0346 52.6772 49.9427 49.0781 52.7323C45.4789 55.5219 41.0537 57.0343 36.5001 57.0311Z" fill="#2B3BE5"/>
</svg>
