<svg width="52" height="52" viewBox="0 0 52 52" fill="none" xmlns="http://www.w3.org/2000/svg">
<path d="M6.56448 27.2017C6.56448 27.2017 5.03223 26.6227 5.03223 24.1137C5.03223 21.6046 6.56448 21.0256 6.56448 21.0256M43.3387 26.2367C43.3387 26.2367 44.8709 25.8189 44.8709 24.1137C44.8709 22.4085 43.3387 21.9906 43.3387 21.9906M24.9516 17.9375V30.2898M11.1613 17.9375V30.2898M39.5023 7.5364C39.5023 7.5364 31.2051 17.9375 23.4193 17.9375H8.09674C7.69036 17.9375 7.30063 18.1002 7.01327 18.3897C6.72592 18.6793 6.56448 19.072 6.56448 19.4815V28.7458C6.56448 29.1553 6.72592 29.548 7.01327 29.8376C7.30063 30.1272 7.69036 30.2898 8.09674 30.2898H23.4193C31.2051 30.2898 39.5023 40.7343 39.5023 40.7343C40.0826 41.5064 41.8064 40.9775 41.8064 39.7857V8.4802C41.8064 7.29225 40.1784 6.66402 39.5023 7.5364Z" stroke="#FBF8FF" stroke-width="2" stroke-linecap="round" stroke-linejoin="round"/>
<path d="M13.8387 30.1936V46.2053C13.8387 46.4076 13.9227 46.6015 14.0721 46.7445C14.2215 46.8875 14.4242 46.9678 14.6355 46.9678H19.9141C20.1638 46.9679 20.4099 46.9118 20.6328 46.8042C20.8556 46.6965 21.0489 46.5403 21.1971 46.348C21.3453 46.1558 21.4442 45.9329 21.4859 45.6974C21.5275 45.4619 21.5108 45.2203 21.437 44.9921C20.6024 42.4302 18.6194 39.5414 18.6194 34.7684H20.2129C20.6356 34.7684 21.0409 34.6077 21.3397 34.3217C21.6386 34.0358 21.8065 33.6479 21.8065 33.2435V31.7185C21.8065 31.3141 21.6386 30.9262 21.3397 30.6402C21.0409 30.3543 20.6356 30.1936 20.2129 30.1936H18.6194" stroke="#FBF8FF" stroke-width="2" stroke-linecap="round" stroke-linejoin="round"/>
</svg>
