<svg width="53" height="53" viewBox="0 0 53 53" fill="none" xmlns="http://www.w3.org/2000/svg">
<path d="M34.7812 1.65625H18.2188C15.4746 1.65625 13.25 3.88084 13.25 6.625V46.375C13.25 49.1192 15.4746 51.3438 18.2188 51.3438H34.7812C37.5254 51.3438 39.75 49.1192 39.75 46.375V6.625C39.75 3.88084 37.5254 1.65625 34.7812 1.65625Z" stroke="#FBF8FF" stroke-width="2" stroke-linecap="round" stroke-linejoin="round"/>
<path d="M18.2188 1.65625H20.7031C20.9228 1.65625 21.1334 1.7435 21.2887 1.8988C21.444 2.05411 21.5312 2.26474 21.5312 2.48438C21.5312 2.92364 21.7057 3.34491 22.0164 3.65552C22.327 3.96613 22.7482 4.14062 23.1875 4.14062H29.8125C30.2518 4.14062 30.673 3.96613 30.9836 3.65552C31.2943 3.34491 31.4688 2.92364 31.4688 2.48438C31.4688 2.26474 31.556 2.05411 31.7113 1.8988C31.8666 1.7435 32.0772 1.65625 32.2969 1.65625H34.7812" stroke="#FBF8FF" stroke-width="2" stroke-linecap="round" stroke-linejoin="round"/>
</svg>
