<svg width="63" height="63" viewBox="0 0 63 63" fill="none" xmlns="http://www.w3.org/2000/svg">
<path d="M51.1875 9.84375H11.8125C8.55057 9.84375 5.90625 12.4881 5.90625 15.75V51.1875C5.90625 54.4494 8.55057 57.0938 11.8125 57.0938H51.1875C54.4494 57.0938 57.0938 54.4494 57.0938 51.1875V15.75C57.0938 12.4881 54.4494 9.84375 51.1875 9.84375Z" stroke="#2B3BE5" stroke-width="4" stroke-linejoin="round"/>
<path d="M36.4219 31.5C38.0528 31.5 39.375 30.1778 39.375 28.5469C39.375 26.9159 38.0528 25.5938 36.4219 25.5938C34.7909 25.5938 33.4688 26.9159 33.4688 28.5469C33.4688 30.1778 34.7909 31.5 36.4219 31.5Z" fill="#2B3BE5"/>
<path d="M46.2656 31.5C47.8966 31.5 49.2188 30.1778 49.2188 28.5469C49.2188 26.9159 47.8966 25.5938 46.2656 25.5938C44.6347 25.5938 43.3125 26.9159 43.3125 28.5469C43.3125 30.1778 44.6347 31.5 46.2656 31.5Z" fill="#2B3BE5"/>
<path d="M36.4219 41.3438C38.0528 41.3438 39.375 40.0216 39.375 38.3906C39.375 36.7597 38.0528 35.4375 36.4219 35.4375C34.7909 35.4375 33.4688 36.7597 33.4688 38.3906C33.4688 40.0216 34.7909 41.3438 36.4219 41.3438Z" fill="#2B3BE5"/>
<path d="M46.2656 41.3438C47.8966 41.3438 49.2188 40.0216 49.2188 38.3906C49.2188 36.7597 47.8966 35.4375 46.2656 35.4375C44.6347 35.4375 43.3125 36.7597 43.3125 38.3906C43.3125 40.0216 44.6347 41.3438 46.2656 41.3438Z" fill="#2B3BE5"/>
<path d="M16.7344 41.3438C18.3653 41.3438 19.6875 40.0216 19.6875 38.3906C19.6875 36.7597 18.3653 35.4375 16.7344 35.4375C15.1034 35.4375 13.7812 36.7597 13.7812 38.3906C13.7812 40.0216 15.1034 41.3438 16.7344 41.3438Z" fill="#2B3BE5"/>
<path d="M26.5781 41.3438C28.2091 41.3438 29.5312 40.0216 29.5312 38.3906C29.5312 36.7597 28.2091 35.4375 26.5781 35.4375C24.9472 35.4375 23.625 36.7597 23.625 38.3906C23.625 40.0216 24.9472 41.3438 26.5781 41.3438Z" fill="#2B3BE5"/>
<path d="M16.7344 51.1875C18.3653 51.1875 19.6875 49.8653 19.6875 48.2344C19.6875 46.6034 18.3653 45.2812 16.7344 45.2812C15.1034 45.2812 13.7812 46.6034 13.7812 48.2344C13.7812 49.8653 15.1034 51.1875 16.7344 51.1875Z" fill="#2B3BE5"/>
<path d="M26.5781 51.1875C28.2091 51.1875 29.5312 49.8653 29.5312 48.2344C29.5312 46.6034 28.2091 45.2812 26.5781 45.2812C24.9472 45.2812 23.625 46.6034 23.625 48.2344C23.625 49.8653 24.9472 51.1875 26.5781 51.1875Z" fill="#2B3BE5"/>
<path d="M36.4219 51.1875C38.0528 51.1875 39.375 49.8653 39.375 48.2344C39.375 46.6034 38.0528 45.2812 36.4219 45.2812C34.7909 45.2812 33.4688 46.6034 33.4688 48.2344C33.4688 49.8653 34.7909 51.1875 36.4219 51.1875Z" fill="#2B3BE5"/>
<path d="M15.75 5.90625V9.84375M47.25 5.90625V9.84375" stroke="#2B3BE5" stroke-width="4" stroke-linecap="round" stroke-linejoin="round"/>
<path d="M57.0938 19.6875H5.90625" stroke="#2B3BE5" stroke-width="4" stroke-linejoin="round"/>
</svg>
