<svg width="53" height="53" viewBox="0 0 53 53" fill="none" xmlns="http://www.w3.org/2000/svg">
<path d="M26.5 33.125C30.1589 33.125 33.125 30.1589 33.125 26.5C33.125 22.8411 30.1589 19.875 26.5 19.875C22.8411 19.875 19.875 22.8411 19.875 26.5C19.875 30.1589 22.8411 33.125 26.5 33.125Z" fill="white"/>
<path d="M28.7082 8.98579V4.41675H24.2915V8.98579C20.4052 9.48124 16.7935 11.2532 14.0232 14.0234C11.2529 16.7937 9.48099 20.4055 8.98555 24.2917H4.4165V28.7084H8.98555C9.48063 32.5949 11.2524 36.2068 14.0228 38.9771C16.7931 41.7475 20.4051 43.5193 24.2915 44.0144V48.5834H28.7082V44.0144C32.5946 43.5193 36.2066 41.7475 38.9769 38.9771C41.7472 36.2068 43.519 32.5949 44.0141 28.7084H48.5832V24.2917H44.0141C43.5187 20.4055 41.7468 16.7937 38.9765 14.0234C36.2062 11.2532 32.5945 9.48124 28.7082 8.98579ZM26.4998 39.7501C19.1925 39.7501 13.2498 33.8075 13.2498 26.5001C13.2498 19.1927 19.1925 13.2501 26.4998 13.2501C33.8072 13.2501 39.7498 19.1927 39.7498 26.5001C39.7498 33.8075 33.8072 39.7501 26.4998 39.7501Z" fill="white"/>
</svg>
